<?xml version="1.0" encoding="UTF-8"?>
<svg id="Layer_2" data-name="Layer 2" xmlns="http://www.w3.org/2000/svg" viewBox="0 0 390.6 430.25">
  <defs>
    <style>
      .cls-1 {
        fill: #0d0d0d;
        isolation: isolate;
        opacity: .2;
      }

      .cls-1, .cls-2, .cls-3, .cls-4 {
        stroke-width: 0px;
      }

      .cls-5 {
        fill: none;
        stroke: #000;
        stroke-linecap: round;
        stroke-linejoin: round;
        stroke-width: 4px;
      }

      .cls-2 {
        fill: #c99b8d;
      }

      .cls-3 {
        fill: #cd6242;
      }

      .cls-4 {
        fill: #e5e5e5;
      }
    </style>
  </defs>
  <g id="Layer_1-2" data-name="Layer 1">
    <g>
      <path class="cls-2" d="m94.68,27.01L12.17,159.94C.35,178.96-3.01,202.01,2.76,223.62l38.99,145.91c11.63,43.6,56.48,69.63,100.18,57.91l186.92-49.85c43.7-11.62,69.64-56.47,58.02-100.18l-39-145.9c-5.76-21.61-20.27-39.96-39.96-50.52L170.17,6.83c-26.6-14.21-59.64-5.47-75.49,20.18Z"/>
      <path class="cls-3" d="m135.21,27.49c7.49-2.02,15.47-1.06,22.38,2.59l137.74,74.15c13.25,7.2,22.96,19.5,26.89,34.1l39,146c7.88,29.58-9.7,59.84-39.19,67.81l-187.01,49.75c-29.58,7.88-59.84-9.7-67.81-39.18L28.31,216.8c-3.85-14.6-1.54-30.06,6.34-42.93L117.06,40.93c4.13-6.62,10.56-11.43,18.15-13.44Zm-6.82-25.55c-14.02,3.74-26.03,12.67-33.71,25.07L12.17,159.94C.35,178.96-3.01,202.01,2.76,223.62l38.99,145.91c11.63,43.6,56.48,69.63,100.18,57.91l186.92-49.85c43.7-11.62,69.64-56.47,58.02-100.18l-39-145.9c-5.76-21.61-20.27-39.96-39.96-50.52L170.17,6.83C157.3-.08,142.42-1.81,128.39,1.94Z"/>
      <path class="cls-1" d="m255.79,153.6l-194.24,51.83,49.43,185.23,194.24-51.82-49.43-185.24Z"/>
      <path class="cls-4" d="m267.8,134.1l-194.24,51.82,49.42,185.24,194.24-51.82-49.42-185.24Z"/>
      <path class="cls-3" d="m203.6,283.85L1.7,219.78l39.96,149.65c11.62,43.61,56.47,69.64,100.18,57.92l186.82-49.85c43.7-11.62,69.64-56.48,58.01-100.09l-39.95-149.65-143.12,156.09Z"/>
      <path class="cls-3" d="m191.59,238.9L51.45,391.91c19.12,30.35,55.71,44.76,90.39,35.54l186.82-49.95c34.67-9.22,59.26-39.96,60.7-75.79l-197.77-62.81Z"/>
      <path class="cls-2" d="m185.35,341.19l62.62-16.71c8.84-2.4,17.87,2.88,20.27,11.72,2.4,8.83-2.88,17.86-11.72,20.26l-62.62,16.72c-8.84,2.4-17.87-2.89-20.27-11.72-2.4-8.94,2.88-17.96,11.72-20.27Z"/>
      <path class="cls-5" d="m197.26,355.02l47.26-12.58"/>
      <path class="cls-5" d="m51.36,392.58l110.07-121.6"/>
      <path class="cls-5" d="m233.38,252.15l155.22,49.18"/>
      <path class="cls-5" d="m30.23,225.93l-26.42-7.97"/>
      <path class="cls-5" d="m325.3,148.13l19.59-20.08"/>
    </g>
  </g>
</svg>