<?xml version="1.0" encoding="UTF-8"?>
<svg id="Layer_2" data-name="Layer 2" xmlns="http://www.w3.org/2000/svg" viewBox="0 0 191.62 221.38">
  <defs>
    <style>
      .cls-1 {
        fill: none;
        stroke: #000;
        stroke-linecap: round;
        stroke-linejoin: round;
        stroke-width: 4px;
      }

      .cls-2, .cls-3, .cls-4, .cls-5 {
        stroke-width: 0px;
      }

      .cls-3 {
        fill: #606060;
      }

      .cls-4 {
        fill: #233746;
      }

      .cls-5 {
        fill: #cd6242;
      }
    </style>
  </defs>
  <g id="Layer_1-2" data-name="Layer 1">
    <g>
      <path class="cls-4" d="m10.83,7.19c-3.06,2.58-5.59,5.74-7.43,9.3C1.57,20.05.45,23.93.11,27.92c-.34,3.99.11,8.01,1.33,11.83,1.22,3.81,3.17,7.35,5.76,10.41l121.61,144.08,46.48-39.28L53.8,10.82c-2.58-3.06-5.75-5.58-9.3-7.42-3.56-1.84-7.45-2.96-11.43-3.3-4-.33-8.01.12-11.83,1.33-3.81,1.22-7.35,3.18-10.41,5.76h0Z"/>
      <path class="cls-5" d="m11.14,54.79l13.09,15.51,46.54-39.27-13.09-15.52L11.14,54.79Z"/>
      <path class="cls-3" d="m175.32,154.87l-46.51,39.37.34.12,27.79,12.04,25.62-21.69-7.1-29.4-.14-.44Z"/>
      <path class="cls-2" d="m191.62,221.38l-9.06-36.67-25.62,21.69,34.68,14.98Z"/>
      <path class="cls-1" d="m36.71,59.82l103.85,123.15"/>
      <path class="cls-1" d="m58.4,41.55l103.88,123.07"/>
    </g>
  </g>
</svg>